<svg xmlns="http://www.w3.org/2000/svg" width="1280" height="720" viewBox="0 0 1280 720">
  <defs>
    <radialGradient id="glowD" cx="50%" cy="50%" r="50%">
      <stop offset="0%" stop-color="#7CE7C0" stop-opacity="0.16" />
      <stop offset="100%" stop-color="#7CE7C0" stop-opacity="0" />
    </radialGradient>
  </defs>

  <g id="background">
    <rect x="0" y="0" width="1280" height="720" fill="#1A1320" />
    <circle cx="180" cy="120" r="300" fill="url(#glowD)" />
  </g>

  <g id="header">
    <text x="80" y="86" font-family="&quot;Microsoft YaHei&quot;, sans-serif" font-size="18" font-weight="bold" fill="#FF6B8A" letter-spacing="2">产品与进展 · PRODUCT &amp; TRACTION</text>
    <text x="80" y="140" font-family="&quot;Microsoft YaHei&quot;, SimHei, sans-serif" font-size="44" font-weight="bold" fill="#EDE6EC">三端已落地，核心链路<tspan fill="#7CE7C0">真实可跑</tspan></text>
  </g>

  <g id="feat-live">
    <text x="80" y="200" font-family="&quot;Microsoft YaHei&quot;, sans-serif" font-size="20" font-weight="bold" fill="#7CE7C0">已实现</text>
    
  <g transform="translate(160, 180)" fill="#7CE7C0">
    <path d="M17 3.34a10 10 0 1 1 -14.995 8.984l-.005 -.324l.005 -.324a10 10 0 0 1 14.995 -8.336zm-1.293 5.953a1 1 0 0 0 -1.32 -.083l-.094 .083l-3.293 3.292l-1.293 -1.292l-.094 -.083a1 1 0 0 0 -1.403 1.403l.083 .094l2 2l.094 .083a1 1 0 0 0 1.226 0l.094 -.083l4 -4l.083 -.094a1 1 0 0 0 -.083 -1.32z" />
  </g>

    <path fill="#241A2E" stroke="#3A2C44" stroke-width="1" d="M92,220 H708 A12,12 0 0 1 720,232 V260 A12,12 0 0 1 708,272 H92 A12,12 0 0 1 80,260 V232 A12,12 0 0 1 92,220 Z" />
    <circle cx="110" cy="246" r="5" fill="#7CE7C0" />
    <text x="132" y="253" font-family="&quot;Microsoft YaHei&quot;, sans-serif" font-size="20" fill="#EDE6EC">注册 / 登录　<tspan fill="#A99FB0" font-size="17">JWT + bcrypt 加密，7 天免登录</tspan></text>

    <path fill="#241A2E" stroke="#3A2C44" stroke-width="1" d="M92,282 H708 A12,12 0 0 1 720,294 V322 A12,12 0 0 1 708,334 H92 A12,12 0 0 1 80,322 V294 A12,12 0 0 1 92,282 Z" />
    <circle cx="110" cy="308" r="5" fill="#7CE7C0" />
    <text x="132" y="315" font-family="&quot;Microsoft YaHei&quot;, sans-serif" font-size="20" fill="#EDE6EC">快速记账 · 分类管理　<tspan fill="#A99FB0" font-size="17">10 预置 + 自定义分类</tspan></text>

    <path fill="#241A2E" stroke="#3A2C44" stroke-width="1" d="M92,344 H708 A12,12 0 0 1 720,356 V384 A12,12 0 0 1 708,396 H92 A12,12 0 0 1 80,384 V356 A12,12 0 0 1 92,344 Z" />
    <circle cx="110" cy="370" r="5" fill="#7CE7C0" />
    <text x="132" y="377" font-family="&quot;Microsoft YaHei&quot;, sans-serif" font-size="20" fill="#EDE6EC">交易记录　<tspan fill="#A99FB0" font-size="17">按日分组、搜索、分类筛选、分页</tspan></text>

    <path fill="#241A2E" stroke="#3A2C44" stroke-width="1" d="M92,406 H708 A12,12 0 0 1 720,418 V446 A12,12 0 0 1 708,458 H92 A12,12 0 0 1 80,446 V418 A12,12 0 0 1 92,406 Z" />
    <circle cx="110" cy="432" r="5" fill="#7CE7C0" />
    <text x="132" y="439" font-family="&quot;Microsoft YaHei&quot;, sans-serif" font-size="20" fill="#EDE6EC">餐饮分析 · 统计图表　<tspan fill="#A99FB0" font-size="17">SVG 趋势图、分类占比</tspan></text>
  </g>

  <g id="feat-soon">
    <text x="80" y="498" font-family="&quot;Microsoft YaHei&quot;, sans-serif" font-size="20" font-weight="bold" fill="#FFD479">规划中</text>
    
  <g transform="translate(160, 478)" fill="#FFD479">
    <path d="M16 19a1 1 0 0 1 0 -2a1 1 0 0 0 1 -1c0 -1.333 2 -1.333 2 0a1 1 0 0 0 1 1c1.333 0 1.333 2 0 2a1 1 0 0 0 -1 1c0 1.333 -2 1.333 -2 0a1 1 0 0 0 -1 -1" />
    <path d="M3 11a5 5 0 0 0 5 -5c0 -1.333 2 -1.333 2 0a5 5 0 0 0 5 5c1.333 0 1.333 2 0 2a5 5 0 0 0 -5 5a1 1 0 0 1 -2 0a5 5 0 0 0 -5 -5c-1.333 0 -1.333 -2 0 -2" />
    <path d="M16 7a1 1 0 0 1 0 -2a1 1 0 0 0 1 -1c0 -1.333 2 -1.333 2 0a1 1 0 0 0 1 1c1.333 0 1.333 2 0 2a1 1 0 0 0 -1 1c0 1.333 -2 1.333 -2 0a1 1 0 0 0 -1 -1" />
  </g>

    <path fill="#241A2E" stroke="#3A2C44" stroke-width="1" d="M92,518 H380 A12,12 0 0 1 392,530 V558 A12,12 0 0 1 380,570 H92 A12,12 0 0 1 80,558 V530 A12,12 0 0 1 92,518 Z" />
    <circle cx="110" cy="544" r="5" fill="#FFD479" />
    <text x="132" y="551" font-family="&quot;Microsoft YaHei&quot;, sans-serif" font-size="18" fill="#EDE6EC">云同步 · 换机恢复</text>

    <path fill="#241A2E" stroke="#3A2C44" stroke-width="1" d="M420,518 H708 A12,12 0 0 1 720,530 V558 A12,12 0 0 1 708,570 H420 A12,12 0 0 1 408,558 V530 A12,12 0 0 1 420,518 Z" />
    <circle cx="438" cy="544" r="5" fill="#FFD479" />
    <text x="460" y="551" font-family="&quot;Microsoft YaHei&quot;, sans-serif" font-size="18" fill="#EDE6EC">账单导出 · 后台运营系统</text>
  </g>

  <g id="tech-stack">
    <path fill="#2E2238" stroke="#3A2C44" stroke-width="1" d="M768,220 H1184 A16,16 0 0 1 1200,236 V370 A16,16 0 0 1 1184,386 H768 A16,16 0 0 1 752,370 V236 A16,16 0 0 1 768,220 Z" />
    
  <g transform="translate(784, 248) scale(1.25)" fill="#FF8C6B">
    <path d="M16 2a3 3 0 0 1 2.995 2.824l.005 .176v14a3 3 0 0 1 -2.824 2.995l-.176 .005h-8a3 3 0 0 1 -2.995 -2.824l-.005 -.176v-14a3 3 0 0 1 2.824 -2.995l.176 -.005h8zm-4 14a1 1 0 0 0 -.993 .883l-.007 .117l.007 .127a1 1 0 0 0 1.986 0l.007 -.117l-.007 -.127a1 1 0 0 0 -.993 -.883zm1 -12h-2l-.117 .007a1 1 0 0 0 0 1.986l.117 .007h2l.117 -.007a1 1 0 0 0 0 -1.986l-.117 -.007z" />
  </g>
    <text x="826" y="272" font-family="&quot;Microsoft YaHei&quot;, sans-serif" font-size="20" font-weight="bold" fill="#FFD479">技术栈</text>
    <text x="786" y="320" font-family="&quot;Microsoft YaHei&quot;, sans-serif" font-size="20" fill="#EDE6EC">Spring Boot + MyBatis + MySQL</text>
    <text x="786" y="356" font-family="&quot;Microsoft YaHei&quot;, sans-serif" font-size="20" fill="#A99FB0">uni-app（Vue3）<tspan fill="#EDE6EC">一套代码三端发布</tspan></text>
  </g>

  <g id="stage-card">
    <path fill="#2E2238" stroke="#FF6B8A" stroke-opacity="0.4" stroke-width="1.5" d="M768,402 H1184 A16,16 0 0 1 1200,418 V552 A16,16 0 0 1 1184,568 H768 A16,16 0 0 1 752,552 V418 A16,16 0 0 1 768,402 Z" />
    
  <g transform="translate(784, 430) scale(1.25)" fill="#FF6B8A">
    <path d="M19 4c.852 0 1.297 .986 .783 1.623l-.076 .084l-3.792 3.793l3.792 3.793c.603 .602 .22 1.614 -.593 1.701l-.114 .006h-13v6a1 1 0 0 1 -.883 .993l-.117 .007a1 1 0 0 1 -.993 -.883l-.007 -.117v-16a1 1 0 0 1 .883 -.993l.117 -.007h14z" />
  </g>
    <text x="826" y="454" font-family="&quot;Microsoft YaHei&quot;, sans-serif" font-size="20" font-weight="bold" fill="#FFD479">当前阶段</text>
    <text x="786" y="504" font-family="&quot;Microsoft YaHei&quot;, SimHei, sans-serif" font-size="32" font-weight="bold" fill="#EDE6EC">MVP 已成型</text>
    <text x="786" y="544" font-family="&quot;Microsoft YaHei&quot;, sans-serif" font-size="19" fill="#A99FB0">核心链路打通，进入内测打磨期</text>
  </g>

  <g id="footer">
    <text x="80" y="612" font-family="&quot;Microsoft YaHei&quot;, sans-serif" font-size="16" fill="#A99FB0">说明：云同步 / 导出为下一阶段功能，本页按真实状态标注，<tspan fill="#EDE6EC">不超前承诺</tspan>。</text>
    <line x1="80" y1="656" x2="1200" y2="656" stroke="#3A2C44" stroke-width="1" />
    <text x="80" y="686" font-family="&quot;Microsoft YaHei&quot;, sans-serif" font-size="15" fill="#6E6076">每日记账 · 投资人路演</text>
    <text x="1200" y="686" text-anchor="end" font-family="&quot;Microsoft YaHei&quot;, sans-serif" font-size="15" fill="#6E6076">04 / 05</text>
  </g>
</svg>